<?xml version="1.0" encoding="UTF-8"?>
<!DOCTYPE svg PUBLIC "-//W3C//DTD SVG 1.1//EN" "http://www.w3.org/Graphics/SVG/1.1/DTD/svg11.dtd">
<!-- Creator: CorelDRAW 2019 (64 Bit) -->
<svg xmlns="http://www.w3.org/2000/svg" xml:space="preserve" width="80mm" height="15mm" version="1.1" style="shape-rendering:geometricPrecision; text-rendering:geometricPrecision; image-rendering:optimizeQuality; fill-rule:evenodd; clip-rule:evenodd"
viewBox="0 0 7991.47 1498.4"
 xmlns:xlink="http://www.w3.org/1999/xlink"
 xmlns:xodm="http://www.corel.com/coreldraw/odm/2003">
 <defs>
  <style type="text/css">
   <![CDATA[
    .fil1 {fill:#56BB45}
    .fil0 {fill:#56BB45;fill-rule:nonzero}
   ]]>
  </style>
    <mask id="id0">
  <linearGradient id="id1" gradientUnits="userSpaceOnUse" x1="2293.2" y1="1265.99" x2="431.57" y2="1265.96">
   <stop offset="0" style="stop-opacity:1; stop-color:white"/>
   <stop offset="1" style="stop-opacity:0; stop-color:white"/>
  </linearGradient>
     <rect style="fill:url(#id1)" x="431.57" y="1223.15" width="1898.61" height="96.69"/>
    </mask>
    <mask id="id2">
  <linearGradient id="id3" gradientUnits="userSpaceOnUse" x1="18.11" y1="38.59" x2="413.81" y2="415.24">
   <stop offset="0" style="stop-opacity:1; stop-color:white"/>
   <stop offset="1" style="stop-opacity:0; stop-color:white"/>
  </linearGradient>
     <rect style="fill:url(#id3)" width="431.76" height="453.83"/>
    </mask>
    <mask id="id4">
  <linearGradient id="id5" gradientUnits="userSpaceOnUse" x1="37.95" y1="1418.6" x2="412.79" y2="1082.82">
   <stop offset="0" style="stop-opacity:1; stop-color:white"/>
   <stop offset="1" style="stop-opacity:0; stop-color:white"/>
  </linearGradient>
     <rect style="fill:url(#id5)" y="1044.58" width="431.76" height="453.82"/>
    </mask>
    <mask id="id6">
  <linearGradient id="id7" gradientUnits="userSpaceOnUse" x1="2761.02" y1="1427.41" x2="2348.83" y2="1083.68">
   <stop offset="0" style="stop-opacity:1; stop-color:white"/>
   <stop offset="1" style="stop-opacity:0; stop-color:white"/>
  </linearGradient>
     <rect style="fill:url(#id7)" x="2330" y="1044.58" width="431.76" height="453.82"/>
    </mask>
    <mask id="id8">
  <linearGradient id="id9" gradientUnits="userSpaceOnUse" x1="2743.91" y1="38.68" x2="2348.12" y2="415.24">
   <stop offset="0" style="stop-opacity:1; stop-color:white"/>
   <stop offset="1" style="stop-opacity:0; stop-color:white"/>
  </linearGradient>
     <rect style="fill:url(#id9)" x="2330" width="431.76" height="453.83"/>
    </mask>
    <mask id="id10">
  <linearGradient id="id11" gradientUnits="userSpaceOnUse" x1="468.55" y1="221.41" x2="2330.18" y2="221.38">
   <stop offset="0" style="stop-opacity:1; stop-color:white"/>
   <stop offset="1" style="stop-opacity:0; stop-color:white"/>
  </linearGradient>
     <rect style="fill:url(#id11)" x="431.57" y="178.57" width="1898.61" height="96.69"/>
    </mask>
    <mask id="id12">
  <linearGradient id="id13" gradientUnits="userSpaceOnUse" x1="261.87" y1="453.64" x2="261.87" y2="1044.59">
   <stop offset="0" style="stop-opacity:1; stop-color:white"/>
   <stop offset="1" style="stop-opacity:0; stop-color:white"/>
  </linearGradient>
     <rect style="fill:url(#id13)" x="169.89" y="453.64" width="91.98" height="590.95"/>
    </mask>
    <mask id="id14">
  <linearGradient id="id15" gradientUnits="userSpaceOnUse" x1="2591.87" y1="1044.6" x2="2591.87" y2="453.65">
   <stop offset="0" style="stop-opacity:1; stop-color:white"/>
   <stop offset="1" style="stop-opacity:0; stop-color:white"/>
  </linearGradient>
     <rect style="fill:url(#id15)" x="2499.89" y="453.65" width="91.98" height="590.95"/>
    </mask>
 </defs>
 <g id="Camada_x0020_1">
  <metadata id="CorelCorpID_0Corel-Layer"/>
  <g id="_2112687361472">
   <polygon class="fil0" style="mask:url(#id0)" points="2330.18,1223.15 431.57,1223.15 431.57,1319.84 2330.18,1319.84 "/>
   <path class="fil0" style="mask:url(#id2)" d="M93.25 0l245.26 0c25.72,0 49.06,10.99 65.92,28.72l0 0.19c16.87,17.74 27.33,42.2 27.33,69.12l-0.19 0 0.01 257.79c-0.01,27 -10.43,51.48 -27.24,69.19l0.09 0.1c-16.87,17.72 -40.21,28.72 -65.93,28.72l0 -0.2 -245.25 0.02c-25.85,-0.01 -49.18,-10.94 -65.93,-28.54l0 -0.19c-16.87,-17.75 -27.32,-42.2 -27.32,-69.12l0.18 0 -0.01 -257.77c0.01,-27.05 10.4,-51.5 27.15,-69.12l0.18 -0.19c16.88,-17.73 40.15,-28.72 65.75,-28.72zm245.26 96.69l-245.25 0c-0.43,0 -0.79,0.12 -1.02,0.32 -0.27,0.32 -0.45,0.7 -0.45,1.02l0 257.77 0.19 0c0,0.44 0.11,0.8 0.28,1.04l0.08 -0.08c0.34,0.36 0.69,0.59 0.91,0.59l245.25 -0.01 0 -0.2c0.36,0 0.69,-0.15 0.91,-0.38l0.17 0c0.23,-0.24 0.39,-0.6 0.39,-0.94l-0.01 -257.79 -0.18 0c0,-0.43 -0.1,-0.8 -0.29,-1.04l-0.08 0.08c-0.21,-0.23 -0.54,-0.38 -0.9,-0.38z"/>
   <path class="fil0" d="M445.94 783.25c0,180.19 97.13,279.18 323.75,279.18 205.28,0 308.29,-82.75 321.53,-239.74l-134.65 0c-12.51,88.17 -77.26,122.97 -186.88,122.97 -133.93,0 -191.32,-51.05 -191.32,-162.41 0,-110.59 56.66,-160.87 191.32,-160.87 110.36,0 174.37,34.03 186.88,121.42l134.65 0c-13.24,-156.22 -116.25,-238.2 -321.53,-238.2 -226.63,0 -323.75,98.22 -323.75,277.64zm1114.71 -73.47l0 -110.59 -205.28 0 0 -132.25 -126.55 37.89 0 94.36 -114.05 0 0 110.59 114.05 0 0 208.04c0,100.53 72.1,144.62 183.94,144.62 58.13,0 105.95,-3.87 147.89,-11.6l0 -106.73c-50.77,7.73 -72.84,7.73 -112.57,7.73 -76.53,0 -92.71,-22.43 -92.71,-110.59l0 -131.47 205.28 0zm399.53 -118.33c-80.93,0 -157.45,23.97 -222.2,85.08l0 -77.34 -125.83 0 0 455.51 125.83 0 0 -273c76.52,-62.64 157.45,-79.66 228.09,-79.66 36.79,0 69.91,4.65 111.11,15.47l0 -110.59c-29.44,-7.73 -65.49,-15.47 -117,-15.47zm168.49 -155.44l0 618.7 125.83 0 0 -618.7 -125.83 0z"/>
   <path class="fil1" d="M3571.21 548.29l0 505.56 139.64 0 0 -505.56 -139.64 0zm0 -181.11l0 127.89 139.64 0 0 -127.89 -139.64 0zm629.6 172.53c-116.78,0 -211.5,40.35 -280.09,97l0 -88.42 -139.64 0 0 505.56 139.64 0 0 -283.26c43.27,-53.21 144.54,-103.85 238.45,-103.85 115.14,0 149.44,55.79 149.44,163.09l0 224.02 140.45 0 1.64 -279.82c-1.64,-186.26 -121.68,-234.32 -249.88,-234.32zm809.26 357.06c-71.86,32.63 -176.39,57.51 -252.34,57.51 -72.67,0 -119.22,-4.29 -119.22,-57.51 0,-51.5 62.88,-70.37 167.4,-70.37 89.01,0 155.16,14.58 204.16,30.9l0 39.48zm-176.39 -357.06c-100.44,0 -196.8,18.89 -294.8,52.35l49.82 107.3c98.8,-30.91 175.57,-36.9 238.45,-36.9 65.32,0 182.92,7.71 182.92,103.85 -62.88,-22.32 -138.83,-36.05 -221.3,-36.05 -152.71,0 -289.89,41.2 -289.89,172.53 0,114.15 84.1,159.65 218.85,159.65 113.51,0 207.42,-27.46 292.35,-71.24l0 62.66 140.45 0 0 -254.93c-1.63,-191.41 -115.96,-259.21 -316.84,-259.21zm798.64 0c-116.78,0 -211.49,40.35 -280.09,97l0 -88.42 -139.64 0 0 505.56 139.64 0 0 -283.26c43.27,-53.21 144.54,-103.85 238.45,-103.85 115.14,0 149.44,55.79 149.44,163.09l0 224.02 140.45 0 1.64 -279.82c-1.64,-186.26 -121.67,-234.32 -249.88,-234.32zm298.06 261.79c0,185.4 133.92,260.93 333.17,260.93 179.66,0 306.22,-61.8 329.09,-210.3l-142.91 0c-18.78,65.23 -84.92,87.56 -186.18,87.56 -120.04,0 -193.53,-33.47 -193.53,-138.19 0,-105.58 73.49,-139.04 193.53,-139.04 101.26,0 167.4,22.32 186.18,87.54l142.91 0c-22.87,-148.48 -149.43,-210.29 -329.09,-210.29 -199.26,0 -333.17,75.53 -333.17,261.79zm1034.64 -150.21c88.19,0 156.79,19.74 180.48,90.98l-365.03 0c22.05,-71.24 89.01,-90.98 184.55,-90.98zm-7.35 291.83c-93.09,0 -166.58,-26.61 -182.1,-107.29l519.36 0c0,-230.03 -146.17,-296.12 -329.09,-296.12 -195.17,0 -333.17,75.53 -333.17,261.79 0,185.4 142.09,260.93 325,260.93 178.02,0 297.24,-60.94 329.1,-189.7l-138.83 0c-35.11,51.51 -93.91,70.38 -190.27,70.38zm577.37 -216.77c-41.78,-7.28 -50.67,-16.75 -50.67,-35.58 0,-17.16 13.01,-27.79 50.67,-33.63l0 69.22zm181.07 224.19l0 -97.95c-16.85,-1.22 -35.76,-2.49 -56.98,-3.89 -19.95,-1.22 -38.93,-2.48 -56.97,-3.85l0 103.98c21.42,1.37 45.74,2.01 73.3,2.01 14.72,0 28.23,-0.1 40.65,-0.31zm67.12 -91.98l0 88.68c56.24,-5.69 67.81,-19.04 67.81,-46.17 0,-25.86 -10.27,-35.56 -67.81,-42.5zm-67.12 -114.86l-40.65 -3.15c-28.35,-2.2 -52.58,-4.18 -73.3,-6.1l0 -82.46c15.46,-0.47 32.75,-0.7 52.06,-0.7 23.09,0 43.65,0.33 61.88,1.1l0 91.31zm-389.33 132.47c0,116.32 89.09,161.73 208.27,178.01l0 5.39 0 46.98 0 7.58 1.02 0c3.15,11.3 13.12,19.61 24.85,19.61l15.37 0c11.74,0 21.71,-8.31 24.85,-19.61l1.02 0 0 -7.58 0 -46.16c26.5,1.47 53.82,2.04 81.46,2.04 11.06,0 21.88,-0.09 32.49,-0.28l0 44.4 0 0.7 0 6.88 1.02 0c3.15,11.3 13.12,19.61 24.84,19.61l15.38 0c11.74,0 21.71,-8.31 24.84,-19.61l1.03 0 0 -7.58 0 -46.98 0 -0.58c128.36,-10.51 208.26,-48.88 208.26,-163.94 0,-107.02 -80.87,-132.29 -208.26,-145.47l0 -90.22c35.92,7.45 51.48,21.01 51.48,44.3l140.45 0c0,-105.67 -75.93,-145.4 -191.93,-158.39l0 -42.44 0 -7.59 -1.03 0c-3.14,-11.3 -13.11,-19.6 -24.84,-19.6l-15.38 0c-11.73,0 -21.71,8.3 -24.84,19.6l-1.02 0 0 6.89 0 0.7 0 37.77c-17.34,-0.62 -35.26,-0.88 -53.71,-0.88 -20.5,0 -40.65,0.36 -60.24,1.21l0 -38.1 0 -7.59 -1.02 0c-3.14,-11.3 -13.12,-19.6 -24.85,-19.6l-15.37 0c-11.74,0 -21.72,8.3 -24.85,19.6l-1.02 0 0 7.59 0 43.48c-110.97,13.78 -191.13,52.88 -191.13,150.48 0,95.05 63.06,126.42 191.13,141.72l0 101.75c-49.38,-11.09 -68.63,-31.52 -68.63,-64.08l-139.64 0zm-3812.71 -293.54l0 -129.61 -604.28 0 0 600.83 146.98 0 0 -187.98 408.3 0 0 -130.46 -408.3 0 0 -152.78 457.3 0z"/>
   <path class="fil0" style="mask:url(#id4)" d="M93.25 1044.58l245.26 0c25.72,0 49.06,10.99 65.92,28.72l0 0.19c16.87,17.74 27.33,42.2 27.33,69.12l-0.19 0 0.01 257.79c-0.01,27 -10.43,51.48 -27.24,69.19l0.09 0.1c-16.87,17.72 -40.21,28.71 -65.93,28.71l0 -0.19 -245.25 0.02c-25.85,-0.01 -49.18,-10.94 -65.93,-28.54l0 -0.19c-16.87,-17.75 -27.32,-42.2 -27.32,-69.12l0.18 0 -0.01 -257.77c0.01,-27.05 10.4,-51.5 27.15,-69.12l0.18 -0.19c16.88,-17.73 40.15,-28.72 65.75,-28.72zm245.26 96.69l-245.25 0c-0.43,0 -0.79,0.11 -1.02,0.32 -0.27,0.32 -0.45,0.7 -0.45,1.02l0 257.77 0.19 0c0,0.44 0.11,0.8 0.28,1.04l0.08 -0.08c0.34,0.36 0.69,0.59 0.91,0.59l245.25 -0.02 0 -0.19c0.36,0 0.69,-0.15 0.91,-0.38l0.17 0c0.23,-0.24 0.39,-0.6 0.39,-0.94l-0.01 -257.79 -0.18 0c0,-0.43 -0.1,-0.8 -0.29,-1.04l-0.08 0.08c-0.21,-0.23 -0.54,-0.38 -0.9,-0.38z"/>
   <path class="fil0" style="mask:url(#id6)" d="M2423.25 1044.58l245.26 0c25.72,0 49.06,10.99 65.93,28.72l0 0.19c16.86,17.74 27.32,42.2 27.32,69.12l-0.18 0 0 257.79c0,27 -10.42,51.48 -27.24,69.19l0.09 0.1c-16.87,17.72 -40.21,28.71 -65.93,28.71l0 -0.19 -245.25 0.02c-25.84,-0.01 -49.18,-10.94 -65.93,-28.54l0 -0.19c-16.87,-17.75 -27.32,-42.2 -27.32,-69.12l0.19 0 -0.01 -257.77c0.01,-27.05 10.39,-51.5 27.14,-69.12l0.18 -0.19c16.88,-17.73 40.15,-28.72 65.75,-28.72zm245.26 96.69l-245.25 0c-0.43,0 -0.78,0.11 -1.02,0.32 -0.27,0.32 -0.45,0.7 -0.45,1.02l0.01 257.77 0.18 0c0,0.44 0.11,0.8 0.29,1.04l0.07 -0.08c0.34,0.36 0.69,0.59 0.91,0.59l245.25 -0.02 0 -0.19c0.36,0 0.69,-0.15 0.91,-0.38l0.17 0c0.23,-0.24 0.39,-0.6 0.39,-0.94l-0.01 -257.79 -0.18 0c0,-0.43 -0.1,-0.8 -0.29,-1.04l-0.07 0.08c-0.22,-0.23 -0.55,-0.38 -0.91,-0.38z"/>
   <path class="fil0" style="mask:url(#id8)" d="M2423.25 453.83l245.26 0c25.72,0 49.06,-11 65.93,-28.72l0 -0.19c16.86,-17.74 27.32,-42.2 27.32,-69.12l-0.18 0 0 -257.79c0,-27 -10.42,-51.48 -27.24,-69.19l0.09 -0.1c-16.87,-17.73 -40.21,-28.72 -65.93,-28.72l0 0.2 -245.25 -0.02c-25.84,0.01 -49.18,10.94 -65.93,28.54l0 0.19c-16.87,17.75 -27.32,42.2 -27.32,69.12l0.19 0 -0.01 257.77c0.01,27.05 10.39,51.5 27.14,69.12l0.18 0.19c16.88,17.72 40.15,28.72 65.75,28.72zm245.26 -96.69l-245.25 0c-0.43,0 -0.78,-0.12 -1.02,-0.32 -0.27,-0.32 -0.45,-0.7 -0.45,-1.02l0.01 -257.77 0.18 0c0,-0.44 0.11,-0.8 0.29,-1.04l0.07 0.08c0.34,-0.36 0.69,-0.59 0.91,-0.59l245.25 0.01 0 0.2c0.36,0 0.69,0.15 0.91,0.38l0.17 0c0.23,0.24 0.39,0.59 0.39,0.94l-0.01 257.79 -0.18 0c0,0.43 -0.1,0.8 -0.29,1.04l-0.07 -0.08c-0.22,0.23 -0.55,0.38 -0.91,0.38z"/>
   <polygon class="fil0" style="mask:url(#id10)" points="431.57,178.57 2330.18,178.57 2330.18,275.26 431.57,275.26 "/>
   <polygon class="fil0" style="mask:url(#id12)" points="261.87,453.64 261.87,1044.58 169.89,1044.58 169.89,453.64 "/>
   <polygon class="fil0" style="mask:url(#id14)" points="2591.87,1044.59 2591.87,453.65 2499.89,453.65 2499.89,1044.59 "/>
  </g>
 </g>
</svg>
